<?xml version="1.0" encoding="utf-8"?><!-- Uploaded to: SVG Repo, www.svgrepo.com, Generator: SVG Repo Mixer Tools -->
<svg fill="#000000" width="800px" height="800px" viewBox="0 0 24 24" id="bedroom-4" data-name="Flat Color" xmlns="http://www.w3.org/2000/svg" class="icon flat-color"><path id="primary" d="M3,10H20V5a1,1,0,0,1,2,0V19a1,1,0,0,1-2,0V18H4v1a1,1,0,0,1-2,0V11A1,1,0,0,1,3,10Z" style="fill: rgb(0, 0, 0);"></path><path id="secondary" d="M4,8H14a2,2,0,0,1,2,2v3a1,1,0,0,1-1,1H3a1,1,0,0,1-1-1V10A2,2,0,0,1,4,8Z" style="fill: rgb(44, 169, 188);"></path></svg>