<?xml version="1.0" encoding="utf-8"?><!-- Uploaded to: SVG Repo, www.svgrepo.com, Generator: SVG Repo Mixer Tools -->
<svg fill="#000000" width="800px" height="800px" viewBox="0 0 24 24" id="hospital-2" data-name="Flat Color" xmlns="http://www.w3.org/2000/svg" class="icon flat-color"><path id="secondary" d="M4,5H9a1,1,0,0,1,1,1V21a1,1,0,0,1-1,1H3a1,1,0,0,1-1-1V7A2,2,0,0,1,4,5Z" style="fill: rgb(44, 169, 188);"></path><path id="primary" d="M10,2H20a2,2,0,0,1,2,2V21a1,1,0,0,1-1,1H8V4A2,2,0,0,1,10,2Z" style="fill: rgb(0, 0, 0);"></path><path id="secondary-2" data-name="secondary" d="M17,10H16v1a1,1,0,0,1-2,0V10H13a1,1,0,0,1,0-2h1V7a1,1,0,0,1,2,0V8h1a1,1,0,0,1,0,2Zm-5,5v7h6V15a1,1,0,0,0-1-1H13A1,1,0,0,0,12,15Z" style="fill: rgb(44, 169, 188);"></path></svg>